<svg id="svg" version="1.1" xmlns="http://www.w3.org/2000/svg" xmlns:xlink="http://www.w3.org/1999/xlink" width="400" height="400" viewBox="0, 0, 400,400"><g id="svgg"><path id="path0" d="M184.020 67.234 C 178.105 68.040,173.877 68.839,169.000 70.069 C 167.240 70.513,164.720 71.141,163.400 71.465 C 162.080 71.789,160.640 72.201,160.200 72.380 C 159.760 72.558,158.050 73.123,156.400 73.635 C 132.913 80.920,108.804 99.080,93.783 120.800 C 92.489 122.670,91.334 124.290,91.216 124.400 C 91.097 124.510,90.613 125.320,90.140 126.200 C 89.667 127.080,88.869 128.520,88.367 129.400 C 86.387 132.869,83.708 137.976,83.197 139.253 C 82.901 139.994,82.178 141.680,81.591 143.000 C 81.003 144.320,80.194 146.300,79.792 147.400 C 79.391 148.500,78.946 149.580,78.803 149.800 C 78.661 150.020,78.299 151.010,78.000 152.000 C 77.701 152.990,77.332 153.980,77.182 154.200 C 77.031 154.420,76.811 155.050,76.693 155.600 C 76.574 156.150,75.923 158.688,75.245 161.240 C 73.714 166.996,72.155 174.764,71.612 179.334 C 71.385 181.240,71.004 184.375,70.765 186.300 C 70.202 190.827,70.202 209.173,70.765 213.700 C 71.004 215.625,71.385 218.760,71.612 220.666 C 72.146 225.160,73.704 232.961,75.187 238.560 C 75.833 241.002,76.475 243.450,76.614 244.000 C 76.753 244.550,77.023 245.360,77.213 245.800 C 77.404 246.240,77.827 247.410,78.154 248.400 C 78.796 250.345,80.345 254.202,81.768 257.400 C 82.258 258.500,82.910 260.030,83.218 260.800 C 83.727 262.075,86.179 266.716,88.342 270.500 C 88.814 271.325,89.582 272.674,90.048 273.498 C 90.997 275.174,93.215 278.492,93.592 278.800 C 93.727 278.910,94.943 280.530,96.295 282.400 C 102.067 290.384,111.910 300.269,120.400 306.609 C 122.050 307.841,123.717 309.108,124.105 309.425 C 124.492 309.741,124.884 310.000,124.976 310.000 C 125.068 310.000,126.209 310.708,127.512 311.574 C 129.970 313.206,131.468 314.089,135.200 316.108 C 136.410 316.762,138.120 317.702,139.000 318.197 C 140.471 319.024,150.512 323.419,154.900 325.156 C 156.287 325.706,160.042 326.855,161.600 327.208 C 162.370 327.382,164.800 328.012,167.000 328.607 C 169.200 329.202,171.900 329.865,173.000 330.080 C 174.100 330.295,175.810 330.637,176.800 330.840 C 199.140 335.423,227.469 334.548,249.400 328.597 C 251.600 328.000,253.897 327.421,254.505 327.310 C 255.113 327.199,255.708 326.949,255.829 326.754 C 255.949 326.559,256.566 326.400,257.200 326.400 C 257.834 326.400,258.464 326.220,258.600 326.000 C 258.736 325.780,259.251 325.600,259.744 325.600 C 260.237 325.600,260.811 325.449,261.020 325.264 C 261.229 325.079,262.030 324.693,262.800 324.405 C 269.397 321.938,284.991 313.612,288.291 310.794 C 288.681 310.461,289.630 309.750,290.400 309.214 C 291.170 308.677,291.890 308.135,292.000 308.009 C 292.110 307.883,293.010 307.154,294.000 306.390 C 297.303 303.840,298.170 303.050,303.205 298.010 C 310.108 291.099,316.800 283.263,316.800 282.091 C 316.800 281.878,314.865 280.575,312.500 279.195 C 307.639 276.358,299.305 271.521,297.200 270.316 C 296.430 269.875,295.620 269.373,295.400 269.200 C 295.180 269.027,294.370 268.531,293.600 268.099 C 289.491 265.791,284.069 262.603,283.138 261.948 C 282.554 261.536,281.972 261.200,281.845 261.200 C 281.718 261.200,280.438 260.480,279.000 259.600 C 277.562 258.720,276.317 258.000,276.234 258.000 C 276.150 258.000,274.869 257.263,273.388 256.363 C 271.906 255.463,270.087 254.383,269.347 253.963 C 267.505 252.919,265.454 251.747,263.900 250.849 C 263.185 250.436,261.443 249.438,260.030 248.631 L 257.460 247.164 255.043 249.482 C 253.713 250.757,252.530 251.890,252.413 252.000 C 251.500 252.858,248.776 254.800,248.485 254.800 C 248.287 254.800,247.828 255.127,247.466 255.527 C 246.876 256.180,239.553 260.024,237.300 260.864 C 236.805 261.049,235.905 261.404,235.300 261.654 C 227.831 264.733,218.720 266.398,209.323 266.402 C 203.765 266.405,197.275 265.900,193.200 265.148 C 189.208 264.411,185.412 263.562,184.600 263.224 C 184.160 263.041,182.990 262.659,182.000 262.376 C 181.010 262.093,180.029 261.712,179.820 261.530 C 179.611 261.349,179.202 261.200,178.911 261.200 C 173.167 261.200,158.184 248.588,153.251 239.601 C 150.276 234.181,149.078 230.999,149.789 230.409 C 150.118 230.136,179.455 229.968,238.640 229.901 L 327.000 229.800 327.315 228.000 C 332.269 199.706,329.389 169.709,319.288 144.400 C 317.620 140.222,313.454 131.665,311.527 128.459 C 310.687 127.062,310.000 125.841,310.000 125.746 C 310.000 125.493,304.498 117.336,303.044 115.432 C 289.201 97.318,270.684 83.028,250.809 75.122 C 231.402 67.403,205.346 64.325,184.020 67.234 M215.192 134.208 C 233.895 138.353,246.333 148.837,253.619 166.600 C 253.799 167.040,254.161 168.120,254.423 169.000 C 254.684 169.880,255.056 170.913,255.249 171.295 C 256.523 173.816,261.534 173.600,201.824 173.600 C 172.247 173.600,147.965 173.465,147.863 173.300 C 147.134 172.110,152.505 159.947,156.092 154.665 C 159.656 149.417,167.397 142.467,172.481 139.952 C 176.442 137.992,180.034 136.400,180.518 136.390 C 180.783 136.385,182.080 136.012,183.400 135.561 C 188.559 133.800,193.890 133.243,204.000 133.410 C 209.724 133.504,213.104 133.745,215.192 134.208 " stroke="none" fill="#fbfbfb" fill-rule="evenodd"></path><path id="path1" d="M194.105 65.887 C 194.714 65.979,195.614 65.977,196.105 65.882 C 196.597 65.787,196.100 65.711,195.000 65.714 C 193.900 65.717,193.497 65.795,194.105 65.887 M208.700 65.882 C 209.195 65.978,210.005 65.978,210.500 65.882 C 210.995 65.787,210.590 65.709,209.600 65.709 C 208.610 65.709,208.205 65.787,208.700 65.882 M189.300 66.276 C 189.685 66.376,190.315 66.376,190.700 66.276 C 191.085 66.175,190.770 66.093,190.000 66.093 C 189.230 66.093,188.915 66.175,189.300 66.276 M213.905 66.283 C 214.402 66.379,215.122 66.375,215.505 66.275 C 215.887 66.175,215.480 66.096,214.600 66.101 C 213.720 66.105,213.407 66.187,213.905 66.283 M147.300 76.234 C 146.585 76.546,146.000 76.894,146.000 77.007 C 146.000 77.215,148.806 76.127,149.146 75.787 C 149.486 75.447,148.620 75.657,147.300 76.234 M287.200 97.400 C 287.946 98.170,288.647 98.800,288.757 98.800 C 288.867 98.800,288.346 98.170,287.600 97.400 C 286.854 96.630,286.153 96.000,286.043 96.000 C 285.933 96.000,286.454 96.630,287.200 97.400 M112.778 98.300 L 111.400 99.800 112.900 98.422 C 113.725 97.663,114.400 96.988,114.400 96.922 C 114.400 96.616,114.062 96.904,112.778 98.300 M107.392 103.300 L 103.800 107.000 107.500 103.408 C 110.936 100.072,111.382 99.600,111.092 99.600 C 111.032 99.600,109.367 101.265,107.392 103.300 M295.200 105.400 C 296.395 106.610,297.463 107.600,297.573 107.600 C 297.683 107.600,296.795 106.610,295.600 105.400 C 294.405 104.190,293.337 103.200,293.227 103.200 C 293.117 103.200,294.005 104.190,295.200 105.400 M302.383 113.900 C 303.126 114.835,303.806 115.600,303.894 115.600 C 304.177 115.600,302.463 113.349,301.735 112.764 C 301.348 112.454,301.640 112.965,302.383 113.900 M196.912 133.895 C 197.964 133.977,199.584 133.976,200.512 133.892 C 201.440 133.808,200.580 133.741,198.600 133.742 C 196.620 133.743,195.860 133.812,196.912 133.895 M204.711 133.893 C 205.651 133.978,207.091 133.977,207.911 133.891 C 208.730 133.805,207.960 133.736,206.200 133.737 C 204.440 133.739,203.770 133.809,204.711 133.893 M231.600 140.979 C 231.600 141.089,232.140 141.459,232.800 141.800 C 233.460 142.141,234.000 142.331,234.000 142.221 C 234.000 142.111,233.460 141.741,232.800 141.400 C 232.140 141.059,231.600 140.869,231.600 140.979 M238.400 145.725 C 238.400 145.794,238.985 146.379,239.700 147.025 L 241.000 148.200 239.825 146.900 C 238.730 145.688,238.400 145.416,238.400 145.725 M162.185 148.100 L 160.200 150.200 162.300 148.215 C 163.455 147.123,164.400 146.178,164.400 146.115 C 164.400 145.817,164.029 146.149,162.185 148.100 M328.901 179.800 C 328.905 180.680,328.987 180.993,329.083 180.495 C 329.179 179.998,329.175 179.278,329.075 178.895 C 328.975 178.513,328.896 178.920,328.901 179.800 M329.714 187.400 C 329.717 188.500,329.795 188.903,329.887 188.295 C 329.979 187.686,329.977 186.786,329.882 186.295 C 329.787 185.803,329.711 186.300,329.714 187.400 M69.728 192.400 C 69.728 193.830,69.801 194.415,69.889 193.700 C 69.978 192.985,69.978 191.815,69.889 191.100 C 69.801 190.385,69.728 190.970,69.728 192.400 M330.170 200.000 C 330.170 204.730,330.228 206.665,330.298 204.300 C 330.369 201.935,330.369 198.065,330.298 195.700 C 330.228 193.335,330.170 195.270,330.170 200.000 M69.728 207.600 C 69.728 209.030,69.801 209.615,69.889 208.900 C 69.978 208.185,69.978 207.015,69.889 206.300 C 69.801 205.585,69.728 206.170,69.728 207.600 M70.101 213.000 C 70.105 213.880,70.187 214.193,70.283 213.695 C 70.379 213.198,70.375 212.478,70.275 212.095 C 70.175 211.713,70.096 212.120,70.101 213.000 M329.701 213.000 C 329.705 213.880,329.787 214.193,329.883 213.695 C 329.979 213.198,329.975 212.478,329.875 212.095 C 329.775 211.713,329.696 212.120,329.701 213.000 M328.893 220.400 C 328.893 221.170,328.975 221.485,329.076 221.100 C 329.176 220.715,329.176 220.085,329.076 219.700 C 328.975 219.315,328.893 219.630,328.893 220.400 M194.532 230.700 C 218.915 230.757,258.695 230.757,282.932 230.700 C 307.169 230.643,287.220 230.596,238.600 230.596 C 189.980 230.596,170.149 230.643,194.532 230.700 M154.360 240.600 C 155.034 241.905,155.588 242.628,155.585 242.200 C 155.583 241.980,155.214 241.350,154.764 240.800 C 154.221 240.136,154.085 240.069,154.360 240.600 M161.200 249.400 C 162.617 250.830,163.867 252.000,163.977 252.000 C 164.087 252.000,163.017 250.830,161.600 249.400 C 160.183 247.970,158.933 246.800,158.823 246.800 C 158.713 246.800,159.783 247.970,161.200 249.400 M254.786 249.100 L 252.600 251.400 254.900 249.214 C 257.037 247.182,257.383 246.800,257.086 246.800 C 257.024 246.800,255.989 247.835,254.786 249.100 M288.400 264.579 C 288.400 264.689,288.940 265.059,289.600 265.400 C 290.260 265.741,290.800 265.931,290.800 265.821 C 290.800 265.711,290.260 265.341,289.600 265.000 C 288.940 264.659,288.400 264.469,288.400 264.579 M200.500 265.487 C 201.105 265.578,202.095 265.578,202.700 265.487 C 203.305 265.395,202.810 265.320,201.600 265.320 C 200.390 265.320,199.895 265.395,200.500 265.487 M215.100 265.482 C 215.595 265.578,216.405 265.578,216.900 265.482 C 217.395 265.387,216.990 265.309,216.000 265.309 C 215.010 265.309,214.605 265.387,215.100 265.482 M206.700 265.896 C 208.075 265.974,210.325 265.974,211.700 265.896 C 213.075 265.818,211.950 265.754,209.200 265.754 C 206.450 265.754,205.325 265.818,206.700 265.896 M300.800 271.779 C 300.800 271.889,301.340 272.259,302.000 272.600 C 302.660 272.941,303.200 273.131,303.200 273.021 C 303.200 272.911,302.660 272.541,302.000 272.200 C 301.340 271.859,300.800 271.669,300.800 271.779 M93.600 280.000 C 94.070 280.660,94.544 281.200,94.654 281.200 C 94.764 281.200,94.470 280.660,94.000 280.000 C 93.530 279.340,93.056 278.800,92.946 278.800 C 92.836 278.800,93.130 279.340,93.600 280.000 M99.899 288.200 C 100.354 288.860,101.323 289.940,102.052 290.600 C 103.030 291.487,102.919 291.278,101.626 289.800 C 99.266 287.102,98.920 286.782,99.899 288.200 M307.578 294.300 L 306.200 295.800 307.700 294.422 C 309.096 293.138,309.384 292.800,309.078 292.800 C 309.012 292.800,308.337 293.475,307.578 294.300 M106.400 295.400 C 107.146 296.170,107.847 296.800,107.957 296.800 C 108.067 296.800,107.546 296.170,106.800 295.400 C 106.054 294.630,105.353 294.000,105.243 294.000 C 105.133 294.000,105.654 294.630,106.400 295.400 M112.800 301.400 C 113.546 302.170,114.247 302.800,114.357 302.800 C 114.467 302.800,113.946 302.170,113.200 301.400 C 112.454 300.630,111.753 300.000,111.643 300.000 C 111.533 300.000,112.054 300.630,112.800 301.400 M300.181 301.700 L 298.600 303.400 300.300 301.819 C 301.235 300.949,302.000 300.184,302.000 300.119 C 302.000 299.816,301.652 300.119,300.181 301.700 M293.600 307.252 C 290.367 309.864,289.867 310.317,290.800 309.789 C 291.612 309.329,296.800 305.150,296.800 304.955 C 296.800 304.681,296.648 304.790,293.600 307.252 M161.800 328.000 C 162.240 328.189,162.870 328.344,163.200 328.344 C 163.578 328.344,163.504 328.217,163.000 328.000 C 162.560 327.811,161.930 327.656,161.600 327.656 C 161.222 327.656,161.296 327.783,161.800 328.000 M195.505 333.883 C 196.002 333.979,196.722 333.975,197.105 333.875 C 197.487 333.775,197.080 333.696,196.200 333.701 C 195.320 333.705,195.007 333.787,195.505 333.883 M220.100 333.876 C 220.485 333.976,221.115 333.976,221.500 333.876 C 221.885 333.775,221.570 333.693,220.800 333.693 C 220.030 333.693,219.715 333.775,220.100 333.876 M201.700 334.291 C 202.525 334.378,203.875 334.378,204.700 334.291 C 205.525 334.205,204.850 334.134,203.200 334.134 C 201.550 334.134,200.875 334.205,201.700 334.291 M213.100 334.289 C 213.815 334.378,214.985 334.378,215.700 334.289 C 216.415 334.201,215.830 334.128,214.400 334.128 C 212.970 334.128,212.385 334.201,213.100 334.289 " stroke="none" fill="#5ca4d4" fill-rule="evenodd"></path><path id="path2" d="M194.400 65.446 C 196.518 65.712,213.655 65.789,212.170 65.525 C 211.306 65.372,206.730 65.263,202.000 65.283 C 197.270 65.303,193.850 65.377,194.400 65.446 M185.507 66.290 C 186.226 66.379,187.306 66.377,187.907 66.286 C 188.508 66.195,187.920 66.122,186.600 66.124 C 185.280 66.126,184.788 66.201,185.507 66.290 M216.905 66.287 C 217.514 66.379,218.414 66.377,218.905 66.282 C 219.397 66.187,218.900 66.111,217.800 66.114 C 216.700 66.117,216.297 66.195,216.905 66.287 M180.500 67.076 C 180.885 67.176,181.515 67.176,181.900 67.076 C 182.285 66.975,181.970 66.893,181.200 66.893 C 180.430 66.893,180.115 66.975,180.500 67.076 M222.900 67.076 C 223.285 67.176,223.915 67.176,224.300 67.076 C 224.685 66.975,224.370 66.893,223.600 66.893 C 222.830 66.893,222.515 66.975,222.900 67.076 M243.400 71.812 C 245.404 72.534,245.678 72.530,244.400 71.800 C 243.850 71.486,243.040 71.230,242.600 71.232 C 242.160 71.234,242.520 71.495,243.400 71.812 M130.300 84.808 C 129.255 85.465,128.400 86.089,128.400 86.197 C 128.400 86.305,129.300 85.839,130.400 85.162 C 131.500 84.485,132.400 83.857,132.400 83.766 C 132.400 83.502,132.303 83.550,130.300 84.808 M121.800 90.635 L 120.600 91.666 121.900 90.806 C 122.615 90.333,123.200 89.868,123.200 89.773 C 123.200 89.473,123.031 89.578,121.800 90.635 M281.200 91.677 C 281.200 91.757,282.325 92.796,283.700 93.987 C 285.075 95.177,285.750 95.649,285.200 95.036 C 284.203 93.924,281.200 91.403,281.200 91.677 M118.385 93.229 L 117.000 94.458 118.500 93.381 C 119.826 92.430,120.257 92.000,119.885 92.000 C 119.822 92.000,119.147 92.553,118.385 93.229 M287.600 97.400 C 288.346 98.170,289.047 98.800,289.157 98.800 C 289.267 98.800,288.746 98.170,288.000 97.400 C 287.254 96.630,286.553 96.000,286.443 96.000 C 286.333 96.000,286.854 96.630,287.600 97.400 M112.378 98.300 L 111.000 99.800 112.500 98.422 C 113.325 97.663,114.000 96.988,114.000 96.922 C 114.000 96.616,113.662 96.904,112.378 98.300 M108.975 101.300 L 107.800 102.600 109.100 101.425 C 110.312 100.330,110.584 100.000,110.275 100.000 C 110.206 100.000,109.621 100.585,108.975 101.300 M294.200 104.000 C 295.950 105.760,297.471 107.200,297.581 107.200 C 297.691 107.200,296.350 105.760,294.600 104.000 C 292.850 102.240,291.329 100.800,291.219 100.800 C 291.109 100.800,292.450 102.240,294.200 104.000 M300.949 111.716 C 302.020 112.972,302.982 114.000,303.086 114.000 C 303.354 114.000,300.023 110.061,299.464 109.717 C 299.209 109.561,299.877 110.460,300.949 111.716 M96.744 115.100 C 95.593 116.489,95.106 117.200,95.304 117.200 C 95.414 117.200,95.986 116.570,96.573 115.800 C 97.663 114.371,97.795 113.832,96.744 115.100 M94.344 118.300 C 93.193 119.689,92.706 120.400,92.904 120.400 C 93.014 120.400,93.586 119.770,94.173 119.000 C 95.263 117.571,95.395 117.032,94.344 118.300 M308.110 121.696 C 309.040 123.114,309.868 124.219,309.951 124.152 C 310.162 123.983,307.683 120.167,306.989 119.590 C 306.676 119.331,307.181 120.279,308.110 121.696 M87.800 128.400 C 87.459 129.060,87.269 129.600,87.379 129.600 C 87.489 129.600,87.859 129.060,88.200 128.400 C 88.541 127.740,88.731 127.200,88.621 127.200 C 88.511 127.200,88.141 127.740,87.800 128.400 M193.700 134.276 C 194.085 134.376,194.715 134.376,195.100 134.276 C 195.485 134.175,195.170 134.093,194.400 134.093 C 193.630 134.093,193.315 134.175,193.700 134.276 M216.400 135.594 C 216.730 135.811,217.435 135.991,217.967 135.994 C 219.251 136.002,218.925 135.775,217.200 135.458 C 216.215 135.277,215.978 135.318,216.400 135.594 M171.100 141.429 C 169.605 142.240,169.696 142.578,171.200 141.800 C 171.860 141.459,172.400 141.094,172.400 140.990 C 172.400 140.732,172.357 140.747,171.100 141.429 M80.419 143.051 C 79.551 145.013,79.350 145.870,80.034 144.696 C 80.682 143.583,81.630 141.200,81.424 141.200 C 81.321 141.200,80.869 142.033,80.419 143.051 M232.410 141.726 C 233.009 142.374,235.695 143.997,235.218 143.422 C 234.910 143.051,234.105 142.466,233.429 142.123 C 232.753 141.779,232.295 141.601,232.410 141.726 M166.800 144.449 C 165.406 145.671,165.405 145.672,166.688 144.819 C 167.396 144.348,168.082 143.791,168.212 143.581 C 168.597 142.957,168.277 143.154,166.800 144.449 M239.200 147.000 C 240.315 147.990,241.328 148.800,241.452 148.800 C 241.793 148.800,237.848 145.234,237.487 145.216 C 237.314 145.207,238.085 146.010,239.200 147.000 M162.386 148.300 L 160.200 150.600 162.500 148.414 C 164.637 146.382,164.983 146.000,164.686 146.000 C 164.624 146.000,163.589 147.035,162.386 148.300 M158.200 152.800 C 157.568 153.460,157.219 153.990,157.425 153.978 C 157.778 153.957,159.839 151.600,159.505 151.600 C 159.420 151.600,158.832 152.140,158.200 152.800 M245.191 153.588 C 245.657 154.241,246.242 154.902,246.491 155.056 C 246.741 155.211,246.441 154.676,245.825 153.868 C 244.488 152.115,243.984 151.892,245.191 153.588 M151.665 163.817 C 150.995 165.288,151.123 165.602,151.847 164.265 C 152.186 163.640,152.388 163.054,152.296 162.963 C 152.205 162.871,151.921 163.256,151.665 163.817 M254.400 172.200 C 254.400 172.943,149.031 173.132,148.663 172.390 C 148.551 172.165,148.506 172.210,148.563 172.490 C 148.768 173.500,254.800 173.411,254.800 172.401 C 254.800 171.961,254.710 171.600,254.600 171.600 C 254.490 171.600,254.400 171.870,254.400 172.200 M328.093 172.800 C 328.093 173.570,328.175 173.885,328.276 173.500 C 328.376 173.115,328.376 172.485,328.276 172.100 C 328.175 171.715,328.093 172.030,328.093 172.800 M70.893 177.600 C 70.893 178.370,70.975 178.685,71.076 178.300 C 71.176 177.915,71.176 177.285,71.076 176.900 C 70.975 176.515,70.893 176.830,70.893 177.600 M329.459 183.400 C 329.593 184.500,329.769 185.475,329.851 185.567 C 330.164 185.917,329.926 182.961,329.580 182.200 C 329.335 181.661,329.295 182.054,329.459 183.400 M70.124 184.200 C 70.126 185.520,70.201 186.012,70.290 185.293 C 70.379 184.574,70.377 183.494,70.286 182.893 C 70.195 182.292,70.122 182.880,70.124 184.200 M330.131 189.000 C 330.133 190.540,330.205 191.121,330.292 190.291 C 330.379 189.461,330.377 188.201,330.289 187.491 C 330.200 186.781,330.129 187.460,330.131 189.000 M69.693 188.800 C 69.693 189.570,69.775 189.885,69.876 189.500 C 69.976 189.115,69.976 188.485,69.876 188.100 C 69.775 187.715,69.693 188.030,69.693 188.800 M69.367 200.000 C 69.367 204.290,69.426 206.045,69.498 203.900 C 69.570 201.755,69.570 198.245,69.498 196.100 C 69.426 193.955,69.367 195.710,69.367 200.000 M330.555 200.200 C 330.556 203.060,330.620 204.178,330.697 202.683 C 330.774 201.189,330.774 198.849,330.696 197.483 C 330.618 196.118,330.555 197.340,330.555 200.200 M330.131 211.000 C 330.133 212.540,330.205 213.121,330.292 212.291 C 330.379 211.461,330.377 210.201,330.289 209.491 C 330.200 208.781,330.129 209.460,330.131 211.000 M69.693 211.200 C 69.693 211.970,69.775 212.285,69.876 211.900 C 69.976 211.515,69.976 210.885,69.876 210.500 C 69.775 210.115,69.693 210.430,69.693 211.200 M70.114 216.200 C 70.117 217.300,70.195 217.703,70.287 217.095 C 70.379 216.486,70.377 215.586,70.282 215.095 C 70.187 214.603,70.111 215.100,70.114 216.200 M329.701 215.800 C 329.705 216.680,329.787 216.993,329.883 216.495 C 329.979 215.998,329.975 215.278,329.875 214.895 C 329.775 214.513,329.696 214.920,329.701 215.800 M328.846 222.067 C 328.821 222.434,328.696 223.064,328.570 223.467 C 328.352 224.162,328.363 224.163,328.797 223.487 C 329.048 223.096,329.173 222.466,329.073 222.087 C 328.911 221.468,328.888 221.466,328.846 222.067 M150.070 231.004 C 150.333 231.266,326.072 231.261,326.335 230.998 C 326.444 230.889,286.783 230.800,238.200 230.800 C 189.617 230.800,149.958 230.892,150.070 231.004 M161.400 249.200 C 162.928 250.740,164.269 252.000,164.379 252.000 C 164.489 252.000,163.328 250.740,161.800 249.200 C 160.272 247.660,158.931 246.400,158.821 246.400 C 158.711 246.400,159.872 247.660,161.400 249.200 M252.800 250.471 C 250.769 252.373,250.638 252.554,252.200 251.298 C 254.066 249.796,255.930 247.978,255.562 248.017 C 255.473 248.027,254.230 249.131,252.800 250.471 M262.400 249.164 C 262.950 249.614,263.580 249.983,263.800 249.985 C 264.228 249.988,263.505 249.434,262.200 248.760 C 261.669 248.485,261.736 248.621,262.400 249.164 M79.612 254.849 C 79.593 255.252,81.220 258.800,81.424 258.800 C 81.527 258.800,81.348 258.172,81.027 257.404 C 80.355 255.795,79.630 254.486,79.612 254.849 M274.769 256.291 C 275.303 256.681,276.653 257.499,277.769 258.109 C 278.886 258.720,279.364 258.900,278.831 258.509 C 278.297 258.119,276.947 257.301,275.831 256.691 C 274.714 256.080,274.236 255.900,274.769 256.291 M225.800 263.600 C 225.296 263.817,225.222 263.944,225.600 263.944 C 225.930 263.944,226.560 263.789,227.000 263.600 C 227.504 263.383,227.578 263.256,227.200 263.256 C 226.870 263.256,226.240 263.411,225.800 263.600 M193.200 264.387 C 194.191 264.717,197.087 264.935,196.767 264.654 C 196.675 264.574,195.610 264.406,194.400 264.281 C 192.980 264.134,192.554 264.171,193.200 264.387 M221.400 264.400 C 220.322 264.674,220.302 264.706,221.200 264.713 C 221.750 264.717,222.650 264.576,223.200 264.400 C 224.544 263.969,223.092 263.969,221.400 264.400 M197.900 265.082 C 198.395 265.178,199.205 265.178,199.700 265.082 C 200.195 264.987,199.790 264.909,198.800 264.909 C 197.810 264.909,197.405 264.987,197.900 265.082 M217.505 265.083 C 218.002 265.179,218.722 265.175,219.105 265.075 C 219.487 264.975,219.080 264.896,218.200 264.901 C 217.320 264.905,217.007 264.987,217.505 265.083 M206.082 265.496 C 207.558 265.573,210.078 265.573,211.682 265.497 C 213.287 265.421,212.080 265.358,209.000 265.358 C 205.920 265.357,204.607 265.419,206.082 265.496 M292.800 266.990 C 292.800 267.094,293.385 267.465,294.100 267.814 L 295.400 268.448 294.400 267.633 C 293.437 266.848,292.800 266.592,292.800 266.990 M94.842 282.198 C 95.552 283.187,96.491 284.312,96.929 284.698 C 97.367 285.084,96.858 284.275,95.798 282.900 C 93.573 280.013,92.937 279.546,94.842 282.198 M315.999 284.500 C 315.410 285.304,315.313 285.584,315.745 285.233 C 316.401 284.700,317.393 283.200,317.089 283.200 C 317.013 283.200,316.522 283.785,315.999 284.500 M103.183 292.100 C 104.841 293.866,105.200 294.184,105.200 293.883 C 105.200 293.819,104.345 292.964,103.300 291.983 L 101.400 290.200 103.183 292.100 M307.229 294.907 C 304.934 297.378,304.094 298.410,305.360 297.200 C 307.542 295.116,311.839 290.392,311.540 290.407 C 311.463 290.411,309.523 292.436,307.229 294.907 M111.000 300.000 C 111.859 300.880,112.652 301.600,112.762 301.600 C 112.872 301.600,112.259 300.880,111.400 300.000 C 110.541 299.120,109.748 298.400,109.638 298.400 C 109.528 298.400,110.141 299.120,111.000 300.000 M300.975 301.300 L 299.800 302.600 301.100 301.425 C 301.815 300.779,302.400 300.194,302.400 300.125 C 302.400 299.816,302.070 300.088,300.975 301.300 M119.600 307.140 C 120.590 308.021,121.940 309.052,122.600 309.433 C 124.237 310.377,123.871 310.044,120.600 307.617 C 118.352 305.949,118.155 305.855,119.600 307.140 M281.400 316.000 C 280.740 316.437,280.380 316.792,280.600 316.788 C 281.001 316.782,283.176 315.223,282.800 315.212 C 282.690 315.208,282.060 315.563,281.400 316.000 M271.200 321.400 C 269.770 322.149,268.780 322.761,269.000 322.761 C 269.220 322.761,270.570 322.149,272.000 321.400 C 273.430 320.651,274.420 320.039,274.200 320.039 C 273.980 320.039,272.630 320.651,271.200 321.400 M144.800 322.000 C 145.570 322.422,146.380 322.766,146.600 322.766 C 146.820 322.766,146.370 322.422,145.600 322.000 C 144.830 321.578,144.020 321.234,143.800 321.234 C 143.580 321.234,144.030 321.578,144.800 322.000 M184.300 333.082 C 184.795 333.178,185.605 333.178,186.100 333.082 C 186.595 332.987,186.190 332.909,185.200 332.909 C 184.210 332.909,183.805 332.987,184.300 333.082 M191.100 333.889 C 191.815 333.978,192.985 333.978,193.700 333.889 C 194.415 333.801,193.830 333.728,192.400 333.728 C 190.970 333.728,190.385 333.801,191.100 333.889 M223.107 333.890 C 223.826 333.979,224.906 333.977,225.507 333.886 C 226.108 333.795,225.520 333.722,224.200 333.724 C 222.880 333.726,222.388 333.801,223.107 333.890 M198.800 334.446 C 200.934 334.713,216.405 334.837,215.200 334.578 C 214.870 334.507,210.550 334.386,205.600 334.310 C 200.650 334.233,197.590 334.295,198.800 334.446 M217.500 334.282 C 217.995 334.378,218.805 334.378,219.300 334.282 C 219.795 334.187,219.390 334.109,218.400 334.109 C 217.410 334.109,217.005 334.187,217.500 334.282 " stroke="none" fill="#348cc4" fill-rule="evenodd"></path><path id="path3" d="M194.000 66.000 C 192.344 66.141,196.019 66.259,202.200 66.263 C 209.092 66.268,212.246 66.162,210.400 65.988 C 206.757 65.644,198.099 65.650,194.000 66.000 M184.600 66.800 L 183.400 67.105 184.600 67.123 C 185.260 67.133,186.610 66.997,187.600 66.820 L 189.400 66.500 187.600 66.497 C 186.610 66.496,185.260 66.632,184.600 66.800 M217.200 66.820 C 219.750 67.274,222.021 67.236,219.800 66.777 C 218.920 66.595,217.570 66.458,216.800 66.473 C 215.495 66.498,215.522 66.522,217.200 66.820 M178.800 67.621 C 178.152 67.842,178.645 67.880,180.200 67.731 C 181.520 67.604,182.675 67.432,182.767 67.350 C 183.090 67.059,179.786 67.284,178.800 67.621 M223.200 67.620 C 224.190 67.797,225.450 67.936,226.000 67.930 L 227.000 67.920 226.000 67.600 C 225.450 67.424,224.190 67.284,223.200 67.290 L 221.400 67.300 223.200 67.620 M173.800 68.404 C 173.140 68.581,170.890 69.117,168.800 69.596 C 159.779 71.662,140.817 78.551,141.706 79.439 C 141.805 79.538,143.576 78.837,145.643 77.880 C 150.077 75.828,152.785 74.763,156.600 73.570 C 158.140 73.089,159.760 72.553,160.200 72.380 C 161.593 71.832,168.669 70.067,175.200 68.639 C 177.103 68.223,177.425 68.072,176.400 68.076 C 175.630 68.079,174.460 68.227,173.800 68.404 M233.000 69.581 C 238.362 70.936,240.573 71.576,246.200 73.405 C 249.464 74.467,254.067 76.432,258.820 78.794 C 261.510 80.130,263.785 81.148,263.877 81.057 C 264.916 80.017,241.874 70.999,233.600 69.207 C 232.390 68.945,230.749 68.566,229.954 68.365 C 229.158 68.164,228.168 68.015,227.754 68.033 C 227.339 68.051,229.700 68.747,233.000 69.581 M135.794 82.142 C 134.135 83.028,130.666 85.182,125.800 88.349 C 117.053 94.041,104.522 105.759,97.942 114.400 C 93.514 120.214,90.636 124.406,91.085 124.386 C 91.258 124.379,92.390 122.898,93.600 121.096 C 103.579 106.231,121.565 89.918,136.100 82.550 C 137.145 82.020,138.000 81.500,138.000 81.393 C 138.000 81.067,137.468 81.248,135.794 82.142 M264.620 81.528 C 264.829 81.708,267.520 83.455,270.600 85.410 C 282.880 93.205,293.731 103.246,303.044 115.432 C 304.445 117.266,309.785 125.183,310.037 125.800 C 310.494 126.919,312.920 130.813,313.068 130.665 C 313.273 130.460,312.467 129.000,309.375 123.974 C 301.500 111.171,288.453 97.106,276.960 89.030 C 274.181 87.077,267.550 82.799,267.290 82.791 C 267.130 82.786,266.550 82.430,266.000 82.000 C 265.039 81.248,263.807 80.827,264.620 81.528 M90.013 125.718 C 87.517 129.669,83.500 137.233,83.759 137.493 C 83.864 137.597,84.679 136.269,85.570 134.541 C 86.462 132.814,87.659 130.590,88.231 129.600 C 88.802 128.610,89.622 127.192,90.051 126.450 C 90.921 124.947,90.888 124.332,90.013 125.718 M313.268 131.500 C 313.342 131.665,314.151 133.330,315.065 135.200 C 317.945 141.089,318.985 143.531,321.623 150.600 C 322.658 153.372,324.926 161.407,326.024 166.190 C 326.528 168.384,327.013 169.961,327.102 169.694 C 327.259 169.222,325.144 160.003,324.419 158.000 C 324.220 157.450,323.581 155.470,322.999 153.600 C 320.713 146.256,314.258 131.200,313.396 131.200 C 313.251 131.200,313.194 131.335,313.268 131.500 M203.600 133.594 C 210.967 133.881,213.450 134.225,219.200 135.754 C 235.440 140.075,248.110 152.030,253.695 168.302 C 254.180 169.715,254.645 170.666,254.728 170.415 C 254.864 170.007,254.628 169.204,253.605 166.600 C 245.249 145.326,228.003 133.790,204.000 133.418 L 195.800 133.291 203.600 133.594 M190.200 134.000 C 189.760 134.189,188.854 134.356,188.186 134.372 C 187.518 134.387,185.628 134.845,183.986 135.390 C 182.344 135.934,180.783 136.384,180.518 136.390 C 180.034 136.400,176.439 137.994,172.481 139.952 C 163.520 144.385,153.937 155.538,149.990 166.128 C 148.643 169.740,149.260 169.162,150.905 165.270 C 152.824 160.730,154.807 157.129,157.000 154.202 C 165.085 143.412,175.021 137.414,189.400 134.644 C 191.160 134.305,193.230 133.960,194.000 133.878 C 194.898 133.782,194.611 133.715,193.200 133.692 C 191.990 133.672,190.640 133.811,190.200 134.000 M82.668 139.257 C 82.350 139.996,81.437 142.108,80.638 143.952 C 78.767 148.272,76.725 154.058,76.982 154.315 C 77.091 154.425,77.292 154.174,77.428 153.757 C 78.117 151.644,78.513 150.526,78.829 149.800 C 79.021 149.360,79.552 148.025,80.010 146.832 C 80.467 145.640,81.174 143.930,81.579 143.032 C 83.020 139.845,83.608 138.275,83.429 138.095 C 83.329 137.995,82.987 138.518,82.668 139.257 M76.041 156.700 C 75.748 157.745,75.282 159.320,75.007 160.200 C 74.545 161.679,73.983 164.017,72.606 170.200 C 72.312 171.520,71.858 174.130,71.597 176.000 C 71.336 177.870,70.960 180.264,70.761 181.320 C 70.563 182.376,70.425 184.356,70.455 185.720 L 70.509 188.200 70.812 185.800 C 70.978 184.480,71.319 181.708,71.568 179.639 C 72.156 174.768,73.690 167.086,75.245 161.240 C 76.776 155.477,76.933 154.800,76.734 154.800 C 76.646 154.800,76.335 155.655,76.041 156.700 M148.600 170.000 C 148.450 170.473,148.417 170.950,148.527 171.060 C 148.637 171.170,148.850 170.873,149.000 170.400 C 149.150 169.927,149.183 169.450,149.073 169.340 C 148.963 169.230,148.750 169.527,148.600 170.000 M327.268 171.600 C 327.287 173.250,327.917 174.956,327.932 173.400 C 327.938 172.740,327.789 171.840,327.600 171.400 C 327.287 170.673,327.257 170.691,327.268 171.600 M255.027 172.166 L 255.287 173.200 201.843 173.200 L 148.400 173.200 148.372 172.300 C 148.345 171.446,148.327 171.441,148.022 172.200 C 147.845 172.640,147.778 173.135,147.874 173.300 C 147.969 173.465,172.247 173.600,201.824 173.600 L 255.600 173.600 255.600 172.624 C 255.600 172.087,255.413 171.532,255.184 171.390 C 254.914 171.223,254.859 171.496,255.027 172.166 M328.070 176.400 C 328.057 176.950,328.195 178.120,328.377 179.000 L 328.708 180.600 328.707 179.200 C 328.705 177.435,328.109 174.812,328.070 176.400 M328.896 182.800 C 328.887 183.790,329.016 185.590,329.183 186.800 L 329.487 189.000 329.504 187.200 C 329.513 186.210,329.384 184.410,329.217 183.200 L 328.913 181.000 328.896 182.800 M69.810 194.900 C 69.659 198.475,69.693 203.740,69.885 206.600 C 70.202 211.297,70.239 210.669,70.269 200.100 C 70.287 193.665,70.253 188.400,70.193 188.400 C 70.134 188.400,69.961 191.325,69.810 194.900 M329.776 200.400 C 329.776 206.670,329.832 209.235,329.899 206.100 C 329.967 202.965,329.967 197.835,329.899 194.700 C 329.832 191.565,329.776 194.130,329.776 200.400 M70.455 214.154 C 70.425 215.449,70.580 217.609,70.800 218.954 C 71.020 220.299,71.568 223.650,72.017 226.400 C 72.931 231.995,76.061 244.628,76.671 245.183 C 76.980 245.464,76.742 244.395,75.245 238.760 C 73.690 232.914,72.156 225.232,71.568 220.361 C 71.319 218.292,70.978 215.520,70.812 214.200 L 70.509 211.800 70.455 214.154 M328.996 214.909 C 328.843 216.541,328.795 218.219,328.890 218.638 C 328.984 219.057,329.205 217.817,329.380 215.882 C 329.555 213.947,329.602 212.269,329.486 212.152 C 329.369 212.036,329.149 213.276,328.996 214.909 M328.185 222.185 C 328.030 223.423,327.993 224.527,328.103 224.637 C 328.213 224.747,328.430 223.823,328.585 222.585 C 328.739 221.346,328.776 220.243,328.666 220.133 C 328.556 220.023,328.339 220.946,328.185 222.185 M327.449 226.615 C 327.312 226.973,327.218 227.746,327.240 228.333 C 327.273 229.191,327.352 229.095,327.646 227.840 C 328.022 226.239,327.895 225.453,327.449 226.615 M238.640 229.900 C 148.363 230.004,148.916 229.994,149.491 231.493 C 149.692 232.016,149.792 231.975,150.055 231.264 L 150.374 230.400 238.787 230.400 C 297.462 230.400,327.200 230.265,327.200 230.000 C 327.200 229.780,327.155 229.645,327.100 229.699 C 327.045 229.754,287.238 229.844,238.640 229.900 M150.000 232.717 C 150.000 233.166,151.745 236.861,153.250 239.601 C 158.193 248.596,173.167 261.200,178.911 261.200 C 179.202 261.200,179.611 261.349,179.820 261.530 C 180.029 261.712,181.010 262.093,182.000 262.376 C 182.990 262.659,184.160 263.041,184.600 263.224 C 185.412 263.562,189.208 264.411,193.200 265.148 C 204.599 267.251,219.623 266.669,228.882 263.766 C 230.577 263.235,232.231 262.800,232.558 262.800 C 232.885 262.800,233.282 262.592,233.439 262.337 C 233.641 262.010,233.443 261.957,232.763 262.158 C 215.309 267.304,193.228 266.923,179.800 261.245 C 179.360 261.059,178.550 260.726,178.000 260.504 C 166.784 255.986,157.739 247.582,152.155 236.492 C 150.970 234.139,150.000 232.440,150.000 232.717 M76.800 245.688 C 76.800 246.225,79.265 252.878,80.638 256.048 C 81.437 257.892,82.350 260.004,82.668 260.743 C 82.987 261.482,83.329 262.005,83.429 261.905 C 83.605 261.728,83.065 260.276,81.603 257.000 C 80.442 254.398,78.506 249.521,77.952 247.800 C 77.481 246.337,76.800 245.089,76.800 245.688 M255.583 248.628 C 254.602 249.633,252.578 251.366,251.083 252.478 C 249.589 253.590,248.452 254.586,248.557 254.690 C 248.707 254.840,251.361 252.989,252.413 252.000 C 252.530 251.890,253.713 250.757,255.043 249.482 L 257.460 247.164 260.030 248.631 C 261.443 249.438,263.185 250.436,263.900 250.849 C 265.454 251.747,267.505 252.919,269.347 253.963 C 270.087 254.383,271.906 255.463,273.388 256.363 C 274.869 257.263,276.150 258.000,276.234 258.000 C 276.317 258.000,277.514 258.690,278.893 259.534 C 280.272 260.377,281.580 261.142,281.801 261.234 C 282.289 261.436,289.601 265.747,291.737 267.092 C 292.582 267.625,293.356 267.977,293.457 267.876 C 293.558 267.775,292.417 266.979,290.920 266.107 C 289.424 265.235,285.050 262.666,281.200 260.399 C 268.294 252.797,257.852 246.800,257.521 246.800 C 257.436 246.800,256.564 247.623,255.583 248.628 M246.754 255.544 C 246.229 255.953,243.561 257.393,240.825 258.744 C 238.089 260.095,236.066 261.200,236.330 261.200 C 236.595 261.200,237.123 261.046,237.505 260.858 C 244.817 257.258,246.917 256.133,247.466 255.527 C 248.316 254.588,247.969 254.597,246.754 255.544 M83.600 262.539 C 83.600 262.863,85.087 265.683,87.325 269.600 C 97.973 288.242,112.801 303.396,131.101 314.338 C 138.376 318.687,152.483 325.250,153.142 324.592 C 153.237 324.497,152.974 324.300,152.557 324.155 C 150.646 323.491,140.431 319.001,139.000 318.197 C 138.120 317.702,136.410 316.762,135.200 316.108 C 131.468 314.089,129.970 313.206,127.512 311.574 C 126.209 310.708,125.068 310.000,124.976 310.000 C 124.884 310.000,124.492 309.741,124.105 309.425 C 123.717 309.108,122.050 307.841,120.400 306.609 C 115.787 303.164,108.597 296.652,104.504 292.211 C 99.608 286.899,99.165 286.370,96.295 282.400 C 94.943 280.530,93.727 278.910,93.592 278.800 C 93.207 278.485,90.989 275.159,89.990 273.398 C 89.492 272.519,88.566 270.900,87.933 269.800 C 87.300 268.700,86.154 266.585,85.386 265.100 C 84.197 262.800,83.600 261.944,83.600 262.539 M294.800 268.751 C 295.350 269.194,296.430 269.905,297.200 270.331 C 298.595 271.104,304.329 274.425,312.500 279.195 C 314.865 280.575,316.800 281.878,316.800 282.091 C 316.800 283.263,310.108 291.099,303.205 298.010 C 298.170 303.050,297.303 303.840,294.000 306.390 C 293.010 307.154,292.110 307.883,292.000 308.009 C 291.890 308.135,291.170 308.677,290.400 309.214 C 289.630 309.750,288.681 310.461,288.291 310.794 C 285.575 313.113,274.325 319.345,267.039 322.566 C 265.740 323.141,264.789 323.722,264.925 323.859 C 265.062 323.995,268.360 322.540,272.254 320.624 C 287.775 312.990,300.781 302.692,312.045 289.121 C 318.514 281.327,318.526 282.102,311.873 278.291 C 309.413 276.882,304.790 274.198,301.600 272.326 C 298.410 270.455,295.350 268.704,294.800 268.435 L 293.800 267.946 294.800 268.751 M262.800 324.400 C 262.267 324.745,262.267 324.788,262.800 324.788 C 263.130 324.788,263.670 324.613,264.000 324.400 C 264.533 324.055,264.533 324.012,264.000 324.012 C 263.670 324.012,263.130 324.187,262.800 324.400 M159.200 326.824 C 159.750 327.069,161.460 327.617,163.000 328.041 C 164.540 328.465,166.790 329.084,168.000 329.417 C 171.374 330.345,179.784 332.006,180.850 331.954 C 181.880 331.904,181.062 331.682,176.600 330.800 C 175.280 330.539,173.480 330.183,172.600 330.009 C 171.720 329.835,169.200 329.205,167.000 328.608 C 164.800 328.012,162.370 327.376,161.600 327.193 C 160.830 327.011,159.750 326.753,159.200 326.620 L 158.200 326.377 159.200 326.824 M255.829 326.754 C 255.708 326.949,255.113 327.199,254.505 327.310 C 253.897 327.421,251.600 328.004,249.400 328.606 C 247.200 329.207,242.970 330.204,240.000 330.820 C 237.030 331.436,235.050 331.952,235.600 331.966 C 238.190 332.034,249.408 329.349,257.200 326.796 L 258.200 326.469 257.124 326.434 C 256.532 326.415,255.949 326.559,255.829 326.754 M183.000 332.400 C 183.660 332.568,185.010 332.704,186.000 332.703 L 187.800 332.700 186.000 332.380 C 185.010 332.203,183.660 332.067,183.000 332.077 L 181.800 332.095 183.000 332.400 M231.000 332.400 L 229.400 332.686 231.000 332.703 C 231.880 332.713,233.050 332.576,233.600 332.400 L 234.600 332.080 233.600 332.097 C 233.050 332.106,231.880 332.242,231.000 332.400 M190.000 333.220 C 190.990 333.397,192.610 333.529,193.600 333.514 L 195.400 333.487 193.200 333.183 C 190.039 332.746,187.501 332.776,190.000 333.220 M223.800 333.200 L 221.800 333.474 223.600 333.514 C 224.590 333.536,226.120 333.405,227.000 333.223 L 228.600 332.892 227.200 332.909 C 226.430 332.918,224.900 333.049,223.800 333.200 M197.702 333.836 C 198.016 334.149,219.176 334.158,219.489 333.844 C 219.623 333.710,214.723 333.600,208.600 333.600 C 202.477 333.600,197.573 333.706,197.702 333.836 " stroke="none" fill="#84b4dc" fill-rule="evenodd"></path><path id="path4" d="M183.200 2.400 C 183.200 2.641,181.533 2.800,179.000 2.800 C 176.467 2.800,174.800 2.959,174.800 3.200 C 174.800 3.429,173.600 3.600,172.000 3.600 C 170.400 3.600,169.200 3.771,169.200 4.000 C 169.200 4.229,168.000 4.400,166.400 4.400 C 164.800 4.400,163.600 4.571,163.600 4.800 C 163.600 5.020,162.689 5.200,161.576 5.200 C 160.329 5.200,159.648 5.353,159.800 5.600 C 159.952 5.847,159.271 6.000,158.024 6.000 C 156.911 6.000,156.000 6.180,156.000 6.400 C 156.000 6.620,155.280 6.800,154.400 6.800 C 153.520 6.800,152.800 6.980,152.800 7.200 C 152.800 7.420,152.080 7.600,151.200 7.600 C 150.320 7.600,149.600 7.760,149.600 7.955 C 149.600 8.247,147.745 8.784,146.503 8.852 C 146.336 8.861,146.008 9.027,145.773 9.222 C 145.539 9.417,144.774 9.620,144.073 9.673 C 143.373 9.727,142.800 9.912,142.800 10.085 C 142.800 10.258,142.260 10.400,141.600 10.400 C 140.940 10.400,140.400 10.580,140.400 10.800 C 140.400 11.020,139.680 11.200,138.800 11.200 C 137.920 11.200,137.200 11.380,137.200 11.600 C 137.200 11.820,136.660 12.000,136.000 12.000 C 135.340 12.000,134.800 12.180,134.800 12.400 C 134.800 12.620,134.260 12.800,133.600 12.800 C 132.940 12.800,132.400 12.980,132.400 13.200 C 132.400 13.420,131.860 13.600,131.200 13.600 C 130.540 13.600,130.000 13.780,130.000 14.000 C 130.000 14.220,129.640 14.400,129.200 14.400 C 128.760 14.400,128.400 14.580,128.400 14.800 C 128.400 15.020,128.130 15.200,127.800 15.200 C 127.470 15.200,127.200 15.380,127.200 15.600 C 127.200 15.820,126.840 16.000,126.400 16.000 C 125.960 16.000,125.600 16.180,125.600 16.400 C 125.600 16.620,125.240 16.800,124.800 16.800 C 124.360 16.800,124.000 16.980,124.000 17.200 C 124.000 17.420,123.460 17.600,122.800 17.600 C 122.140 17.600,121.600 17.780,121.600 18.000 C 121.600 18.220,121.240 18.400,120.800 18.400 C 120.360 18.400,120.000 18.580,120.000 18.800 C 120.000 19.020,119.460 19.200,118.800 19.200 C 118.140 19.200,117.600 19.380,117.600 19.600 C 117.600 19.820,117.240 20.000,116.800 20.000 C 116.360 20.000,116.000 20.180,116.000 20.400 C 116.000 20.620,115.640 20.800,115.200 20.800 C 114.760 20.800,114.400 20.980,114.400 21.200 C 114.400 21.420,114.040 21.600,113.600 21.600 C 113.160 21.600,112.800 21.780,112.800 22.000 C 112.800 22.220,112.564 22.400,112.275 22.400 C 111.987 22.400,111.402 22.725,110.975 23.122 C 110.549 23.520,109.615 24.103,108.900 24.420 C 108.185 24.736,107.600 25.142,107.600 25.321 C 107.600 25.501,107.464 25.563,107.298 25.460 C 107.131 25.358,106.289 25.617,105.426 26.037 C 104.563 26.457,103.619 26.800,103.329 26.800 C 103.038 26.800,102.800 26.980,102.800 27.200 C 102.800 27.420,102.480 27.600,102.088 27.600 C 101.697 27.600,101.117 27.960,100.800 28.400 C 100.483 28.840,99.975 29.200,99.672 29.200 C 99.369 29.200,98.617 29.740,98.000 30.400 C 97.383 31.060,96.591 31.600,96.240 31.600 C 95.888 31.600,95.600 31.780,95.600 32.000 C 95.600 32.220,95.240 32.400,94.800 32.400 C 94.360 32.400,94.000 32.580,94.000 32.800 C 94.000 33.020,93.732 33.200,93.403 33.200 C 93.075 33.200,92.582 33.560,92.307 34.000 C 92.032 34.440,91.563 34.800,91.264 34.800 C 90.965 34.800,90.217 35.340,89.600 36.000 C 88.983 36.660,88.263 37.200,88.000 37.200 C 87.737 37.200,87.017 37.740,86.400 38.400 C 85.783 39.060,85.031 39.600,84.728 39.600 C 84.425 39.600,83.917 39.960,83.600 40.400 C 83.283 40.840,82.703 41.200,82.312 41.200 C 81.920 41.200,81.600 41.362,81.600 41.561 C 81.600 41.759,81.060 42.110,80.400 42.340 C 79.740 42.570,79.200 42.956,79.200 43.197 C 79.200 43.722,77.387 45.600,76.880 45.600 C 76.684 45.600,76.198 45.960,75.800 46.400 C 75.402 46.840,74.917 47.200,74.723 47.200 C 74.528 47.200,72.763 48.820,70.800 50.800 C 68.837 52.780,66.954 54.400,66.615 54.400 C 66.267 54.400,66.000 54.747,66.000 55.200 C 66.000 55.733,65.733 56.000,65.200 56.000 C 64.667 56.000,64.400 56.267,64.400 56.800 C 64.400 57.333,64.133 57.600,63.600 57.600 C 63.082 57.600,62.800 57.867,62.800 58.357 C 62.800 59.019,62.029 59.658,61.102 59.765 C 60.619 59.821,57.600 63.162,57.600 63.640 C 57.600 63.882,57.060 64.583,56.400 65.200 C 55.740 65.817,55.200 66.609,55.200 66.960 C 55.200 67.312,54.924 67.600,54.587 67.600 C 53.838 67.600,51.200 70.169,51.200 70.898 C 51.200 71.187,50.840 71.683,50.400 72.000 C 49.960 72.317,49.600 72.824,49.600 73.127 C 49.600 73.430,48.537 74.661,47.238 75.861 C 45.939 77.062,44.765 78.484,44.630 79.022 C 44.495 79.560,44.199 80.000,43.972 80.000 C 43.744 80.000,43.370 80.540,43.140 81.200 C 42.910 81.860,42.559 82.400,42.361 82.400 C 42.162 82.400,42.000 82.688,42.000 83.040 C 42.000 83.391,41.460 84.183,40.800 84.800 C 40.140 85.417,39.600 86.169,39.600 86.472 C 39.600 86.775,39.240 87.283,38.800 87.600 C 38.360 87.917,38.000 88.457,38.000 88.800 C 38.000 89.143,37.640 89.683,37.200 90.000 C 36.760 90.317,36.400 90.854,36.400 91.192 C 36.400 91.531,36.040 92.032,35.600 92.307 C 35.160 92.582,34.800 93.075,34.800 93.403 C 34.800 93.732,34.620 94.000,34.400 94.000 C 34.180 94.000,34.000 94.360,34.000 94.800 C 34.000 95.240,33.820 95.600,33.600 95.600 C 33.380 95.600,33.200 95.960,33.200 96.400 C 33.200 96.933,32.933 97.200,32.400 97.200 C 31.960 97.200,31.601 97.425,31.603 97.700 C 31.607 98.333,28.312 104.954,27.904 105.133 C 27.737 105.207,27.600 105.612,27.600 106.033 C 27.600 106.455,27.420 106.800,27.200 106.800 C 26.980 106.800,26.800 107.160,26.800 107.600 C 26.800 108.040,26.648 108.400,26.463 108.400 C 26.278 108.400,25.908 109.130,25.641 110.021 C 25.374 110.913,24.895 111.742,24.578 111.864 C 24.260 111.986,24.000 112.426,24.000 112.843 C 24.000 113.259,23.820 113.600,23.600 113.600 C 23.380 113.600,23.200 114.140,23.200 114.800 C 23.200 115.460,23.020 116.000,22.800 116.000 C 22.580 116.000,22.400 116.360,22.400 116.800 C 22.400 117.240,22.220 117.600,22.000 117.600 C 21.780 117.600,21.600 118.140,21.600 118.800 C 21.600 119.460,21.420 120.000,21.200 120.000 C 20.980 120.000,20.800 120.360,20.800 120.800 C 20.800 121.240,20.620 121.600,20.400 121.600 C 20.180 121.600,20.000 122.140,20.000 122.800 C 20.000 123.460,19.820 124.000,19.600 124.000 C 19.380 124.000,19.200 124.360,19.200 124.800 C 19.200 125.240,19.020 125.600,18.800 125.600 C 18.580 125.600,18.400 125.971,18.400 126.424 C 18.400 126.877,18.220 127.136,18.000 127.000 C 17.780 126.864,17.600 127.123,17.600 127.576 C 17.600 128.029,17.420 128.400,17.200 128.400 C 16.980 128.400,16.800 128.929,16.800 129.576 C 16.800 130.223,16.620 130.864,16.400 131.000 C 16.180 131.136,16.000 131.687,16.000 132.224 C 16.000 132.761,15.820 133.200,15.600 133.200 C 15.380 133.200,15.200 133.740,15.200 134.400 C 15.200 135.060,15.020 135.600,14.800 135.600 C 14.580 135.600,14.400 136.140,14.400 136.800 C 14.400 137.460,14.220 138.000,14.000 138.000 C 13.780 138.000,13.600 138.720,13.600 139.600 C 13.600 140.480,13.420 141.200,13.200 141.200 C 12.980 141.200,12.800 141.639,12.800 142.176 C 12.800 142.713,12.620 143.264,12.400 143.400 C 12.180 143.536,12.000 144.256,12.000 145.000 C 12.000 145.744,11.820 146.464,11.600 146.600 C 11.380 146.736,11.200 147.276,11.200 147.800 C 11.200 148.324,11.020 148.864,10.800 149.000 C 10.580 149.136,10.400 149.676,10.400 150.200 C 10.400 150.724,10.237 151.254,10.038 151.377 C 9.838 151.500,9.769 151.960,9.884 152.400 C 9.999 152.839,9.783 153.672,9.404 154.251 C 8.906 155.011,8.783 155.733,8.962 156.851 C 9.112 157.792,9.051 158.400,8.805 158.400 C 8.581 158.400,8.400 159.383,8.400 160.600 C 8.400 161.810,8.220 162.800,8.000 162.800 C 7.778 162.800,7.600 163.867,7.600 165.200 C 7.600 166.533,7.422 167.600,7.200 167.600 C 6.971 167.600,6.800 168.800,6.800 170.400 C 6.800 172.000,6.629 173.200,6.400 173.200 C 6.161 173.200,6.000 174.733,6.000 177.000 C 6.000 179.267,5.839 180.800,5.600 180.800 C 5.339 180.800,5.200 187.467,5.200 200.000 C 5.200 212.533,5.339 219.200,5.600 219.200 C 5.839 219.200,6.000 220.733,6.000 223.000 C 6.000 225.267,6.161 226.800,6.400 226.800 C 6.629 226.800,6.800 228.000,6.800 229.600 C 6.800 231.200,6.971 232.400,7.200 232.400 C 7.429 232.400,7.600 233.600,7.600 235.200 C 7.600 236.800,7.771 238.000,8.000 238.000 C 8.220 238.000,8.400 238.810,8.400 239.800 C 8.400 240.869,8.583 241.600,8.851 241.600 C 9.154 241.600,9.218 242.129,9.046 243.206 C 8.863 244.349,8.971 245.090,9.424 245.780 C 9.773 246.313,10.018 247.076,9.969 247.475 C 9.919 247.874,10.065 248.650,10.293 249.200 C 10.520 249.750,10.630 250.329,10.537 250.487 C 10.445 250.645,10.736 251.534,11.184 252.462 C 11.633 253.391,12.000 254.646,12.000 255.252 C 12.000 255.857,12.180 256.464,12.400 256.600 C 12.620 256.736,12.800 257.287,12.800 257.824 C 12.800 258.361,12.980 258.800,13.200 258.800 C 13.420 258.800,13.600 259.520,13.600 260.400 C 13.600 261.280,13.780 262.000,14.000 262.000 C 14.220 262.000,14.400 262.540,14.400 263.200 C 14.400 263.860,14.580 264.400,14.800 264.400 C 15.020 264.400,15.200 264.940,15.200 265.600 C 15.200 266.260,15.380 266.800,15.600 266.800 C 15.820 266.800,16.000 267.239,16.000 267.776 C 16.000 268.313,16.180 268.864,16.400 269.000 C 16.620 269.136,16.800 269.777,16.800 270.424 C 16.800 271.071,16.980 271.600,17.200 271.600 C 17.420 271.600,17.600 271.971,17.600 272.424 C 17.600 272.877,17.780 273.136,18.000 273.000 C 18.220 272.864,18.400 273.123,18.400 273.576 C 18.400 274.029,18.580 274.400,18.800 274.400 C 19.020 274.400,19.200 274.760,19.200 275.200 C 19.200 275.640,19.380 276.000,19.600 276.000 C 19.820 276.000,20.000 276.540,20.000 277.200 C 20.000 277.860,20.180 278.400,20.400 278.400 C 20.620 278.400,20.800 278.940,20.800 279.600 C 20.800 280.260,20.980 280.800,21.200 280.800 C 21.420 280.800,21.600 281.160,21.600 281.600 C 21.600 282.040,21.780 282.400,22.000 282.400 C 22.220 282.400,22.400 282.760,22.400 283.200 C 22.400 283.640,22.580 284.000,22.800 284.000 C 23.020 284.000,23.200 284.360,23.200 284.800 C 23.200 285.240,23.380 285.600,23.600 285.600 C 23.820 285.600,24.000 286.140,24.000 286.800 C 24.000 287.460,24.180 288.000,24.400 288.000 C 24.620 288.000,24.800 288.360,24.800 288.800 C 24.800 289.240,24.977 289.600,25.192 289.600 C 25.408 289.600,25.698 290.050,25.836 290.600 C 25.974 291.150,26.247 291.600,26.443 291.600 C 26.640 291.600,26.800 291.960,26.800 292.400 C 26.800 292.840,26.980 293.200,27.200 293.200 C 27.420 293.200,27.600 293.545,27.600 293.967 C 27.600 294.388,27.741 294.793,27.914 294.867 C 28.086 294.940,28.904 296.380,29.731 298.066 C 30.559 299.752,31.498 301.349,31.818 301.615 C 32.138 301.881,32.400 302.396,32.400 302.761 C 32.400 303.125,32.760 303.683,33.200 304.000 C 33.640 304.317,34.000 304.897,34.000 305.288 C 34.000 305.680,34.180 306.000,34.400 306.000 C 34.620 306.000,34.800 306.268,34.800 306.597 C 34.800 306.925,35.160 307.418,35.600 307.693 C 36.040 307.968,36.400 308.469,36.400 308.808 C 36.400 309.146,36.760 309.683,37.200 310.000 C 37.640 310.317,38.000 310.897,38.000 311.288 C 38.000 311.680,38.180 312.000,38.400 312.000 C 38.620 312.000,38.800 312.288,38.800 312.640 C 38.800 312.991,39.340 313.783,40.000 314.400 C 40.660 315.017,41.200 315.727,41.200 315.979 C 41.200 316.230,41.650 316.886,42.200 317.436 C 42.750 317.986,43.200 318.671,43.200 318.959 C 43.200 319.246,43.740 320.046,44.400 320.737 C 45.060 321.428,45.600 322.153,45.600 322.348 C 45.600 322.544,46.500 323.523,47.600 324.524 C 48.700 325.525,49.600 326.587,49.600 326.884 C 49.600 327.180,49.960 327.683,50.400 328.000 C 50.840 328.317,51.200 328.813,51.200 329.102 C 51.200 329.831,53.838 332.400,54.587 332.400 C 54.924 332.400,55.200 332.688,55.200 333.040 C 55.200 333.391,55.740 334.183,56.400 334.800 C 57.060 335.417,57.600 336.132,57.600 336.389 C 57.600 336.975,58.600 338.000,59.171 338.000 C 59.407 338.000,59.600 338.274,59.600 338.610 C 59.600 338.945,60.005 339.383,60.500 339.582 C 61.688 340.059,63.600 341.771,63.600 342.357 C 63.600 342.941,67.029 346.400,67.609 346.400 C 67.845 346.400,69.281 347.660,70.800 349.200 C 72.319 350.740,73.751 352.000,73.982 352.000 C 74.213 352.000,75.053 352.720,75.848 353.600 C 76.643 354.480,77.542 355.200,77.847 355.200 C 78.151 355.200,78.400 355.474,78.400 355.810 C 78.400 356.145,78.880 356.602,79.466 356.825 C 80.053 357.048,80.839 357.584,81.213 358.015 C 81.588 358.447,82.148 358.800,82.459 358.800 C 82.769 358.800,83.283 359.160,83.600 359.600 C 83.917 360.040,84.457 360.400,84.800 360.400 C 85.143 360.400,85.683 360.760,86.000 361.200 C 86.317 361.640,86.821 362.000,87.120 362.000 C 87.418 362.000,88.354 362.720,89.200 363.600 C 90.046 364.480,90.978 365.200,91.272 365.200 C 91.567 365.200,92.032 365.560,92.307 366.000 C 92.582 366.440,93.075 366.800,93.403 366.800 C 93.732 366.800,94.000 366.980,94.000 367.200 C 94.000 367.420,94.360 367.600,94.800 367.600 C 95.240 367.600,95.600 367.780,95.600 368.000 C 95.600 368.220,95.888 368.400,96.240 368.400 C 96.591 368.400,97.383 368.940,98.000 369.600 C 98.617 370.260,99.369 370.800,99.672 370.800 C 99.975 370.800,100.483 371.160,100.800 371.600 C 101.117 372.040,101.697 372.400,102.088 372.400 C 102.480 372.400,102.800 372.580,102.800 372.800 C 102.800 373.020,103.038 373.200,103.329 373.200 C 103.619 373.200,104.563 373.543,105.426 373.963 C 106.289 374.383,107.131 374.642,107.298 374.540 C 107.464 374.437,107.600 374.510,107.600 374.702 C 107.600 374.894,108.230 375.298,109.000 375.600 C 109.883 375.947,110.400 376.417,110.400 376.875 C 110.400 377.414,110.708 377.600,111.600 377.600 C 112.260 377.600,112.800 377.780,112.800 378.000 C 112.800 378.220,113.160 378.400,113.600 378.400 C 114.040 378.400,114.400 378.580,114.400 378.800 C 114.400 379.020,114.760 379.200,115.200 379.200 C 115.640 379.200,116.000 379.380,116.000 379.600 C 116.000 379.820,116.360 380.000,116.800 380.000 C 117.240 380.000,117.600 380.180,117.600 380.400 C 117.600 380.620,118.140 380.800,118.800 380.800 C 119.460 380.800,120.000 380.980,120.000 381.200 C 120.000 381.420,120.360 381.600,120.800 381.600 C 121.240 381.600,121.600 381.780,121.600 382.000 C 121.600 382.220,122.140 382.400,122.800 382.400 C 123.460 382.400,124.000 382.580,124.000 382.800 C 124.000 383.020,124.360 383.200,124.800 383.200 C 125.240 383.200,125.600 383.380,125.600 383.600 C 125.600 383.820,125.960 384.000,126.400 384.000 C 126.840 384.000,127.200 384.180,127.200 384.400 C 127.200 384.620,127.470 384.800,127.800 384.800 C 128.130 384.800,128.400 384.980,128.400 385.200 C 128.400 385.420,128.760 385.600,129.200 385.600 C 129.640 385.600,130.000 385.780,130.000 386.000 C 130.000 386.220,130.540 386.400,131.200 386.400 C 131.860 386.400,132.400 386.580,132.400 386.800 C 132.400 387.020,132.940 387.200,133.600 387.200 C 134.260 387.200,134.800 387.380,134.800 387.600 C 134.800 387.820,135.340 388.000,136.000 388.000 C 136.660 388.000,137.200 388.180,137.200 388.400 C 137.200 388.620,137.920 388.800,138.800 388.800 C 139.680 388.800,140.400 388.980,140.400 389.200 C 140.400 389.420,140.940 389.600,141.600 389.600 C 142.260 389.600,142.800 389.760,142.800 389.955 C 142.800 390.267,143.725 390.543,146.092 390.936 C 146.472 390.999,146.907 391.174,147.059 391.325 C 147.210 391.476,147.843 391.600,148.467 391.600 C 149.090 391.600,149.600 391.780,149.600 392.000 C 149.600 392.220,150.320 392.400,151.200 392.400 C 152.080 392.400,152.800 392.580,152.800 392.800 C 152.800 393.020,153.520 393.200,154.400 393.200 C 155.280 393.200,156.000 393.380,156.000 393.600 C 156.000 393.820,156.911 394.000,158.024 394.000 C 159.271 394.000,159.952 394.153,159.800 394.400 C 159.648 394.647,160.329 394.800,161.576 394.800 C 162.689 394.800,163.600 394.980,163.600 395.200 C 163.600 395.429,164.800 395.600,166.400 395.600 C 168.000 395.600,169.200 395.771,169.200 396.000 C 169.200 396.229,170.400 396.400,172.000 396.400 C 173.600 396.400,174.800 396.571,174.800 396.800 C 174.800 397.041,176.467 397.200,179.000 397.200 C 181.533 397.200,183.200 397.359,183.200 397.600 C 183.200 397.860,189.200 398.000,200.400 398.000 C 211.600 398.000,217.600 397.860,217.600 397.600 C 217.600 397.361,219.133 397.200,221.400 397.200 C 223.667 397.200,225.200 397.039,225.200 396.800 C 225.200 396.567,226.533 396.400,228.400 396.400 C 230.267 396.400,231.600 396.233,231.600 396.000 C 231.600 395.778,232.667 395.600,234.000 395.600 C 235.333 395.600,236.400 395.422,236.400 395.200 C 236.400 394.980,237.379 394.800,238.576 394.800 C 239.773 394.800,240.864 394.620,241.000 394.400 C 241.136 394.180,241.867 394.000,242.624 394.000 C 243.381 394.000,244.000 393.820,244.000 393.600 C 244.000 393.380,244.900 393.200,246.000 393.200 C 247.100 393.200,248.000 393.020,248.000 392.800 C 248.000 392.580,248.540 392.400,249.200 392.400 C 249.860 392.400,250.400 392.220,250.400 392.000 C 250.400 391.780,250.829 391.600,251.354 391.600 C 252.378 391.600,256.153 390.560,257.295 389.963 C 257.677 389.763,258.532 389.600,259.195 389.600 C 259.858 389.600,260.400 389.420,260.400 389.200 C 260.400 388.980,260.940 388.800,261.600 388.800 C 262.260 388.800,262.800 388.620,262.800 388.400 C 262.800 388.180,263.340 388.000,264.000 388.000 C 264.660 388.000,265.200 387.820,265.200 387.600 C 265.200 387.380,265.740 387.200,266.400 387.200 C 267.060 387.200,267.600 387.020,267.600 386.800 C 267.600 386.580,268.140 386.400,268.800 386.400 C 269.460 386.400,270.000 386.220,270.000 386.000 C 270.000 385.780,270.360 385.600,270.800 385.600 C 271.240 385.600,271.600 385.420,271.600 385.200 C 271.600 384.980,271.870 384.800,272.200 384.800 C 272.530 384.800,272.800 384.620,272.800 384.400 C 272.800 384.180,273.149 384.000,273.576 384.000 C 274.003 384.000,274.464 383.820,274.600 383.600 C 274.736 383.380,275.287 383.200,275.824 383.200 C 276.361 383.200,276.800 383.020,276.800 382.800 C 276.800 382.580,277.160 382.400,277.600 382.400 C 278.040 382.400,278.400 382.220,278.400 382.000 C 278.400 381.780,278.940 381.600,279.600 381.600 C 280.260 381.600,280.800 381.420,280.800 381.200 C 280.800 380.980,281.160 380.800,281.600 380.800 C 282.040 380.800,282.400 380.620,282.400 380.400 C 282.400 380.180,282.760 380.000,283.200 380.000 C 283.640 380.000,284.000 379.820,284.000 379.600 C 284.000 379.380,284.360 379.200,284.800 379.200 C 285.240 379.200,285.600 379.020,285.600 378.800 C 285.600 378.580,285.960 378.400,286.400 378.400 C 286.840 378.400,287.200 378.220,287.200 378.000 C 287.200 377.780,287.436 377.600,287.725 377.600 C 288.013 377.600,288.636 377.240,289.108 376.800 C 289.580 376.360,290.255 376.000,290.607 376.000 C 290.959 376.000,291.136 375.820,291.000 375.600 C 290.864 375.380,291.113 375.200,291.553 375.200 C 291.993 375.200,292.466 375.017,292.604 374.793 C 292.742 374.570,293.010 374.483,293.200 374.600 C 293.390 374.717,293.658 374.630,293.796 374.407 C 293.934 374.183,294.397 374.000,294.824 374.000 C 295.251 374.000,295.600 373.820,295.600 373.600 C 295.600 373.380,295.960 373.200,296.400 373.200 C 296.840 373.200,297.200 373.020,297.200 372.800 C 297.200 372.580,297.560 372.400,298.000 372.400 C 298.440 372.400,298.800 372.220,298.800 372.000 C 298.800 371.780,299.088 371.600,299.440 371.600 C 299.791 371.600,300.583 371.060,301.200 370.400 C 301.817 369.740,302.609 369.200,302.960 369.200 C 303.312 369.200,303.600 369.020,303.600 368.800 C 303.600 368.580,303.894 368.400,304.253 368.400 C 304.612 368.400,305.197 368.084,305.553 367.697 C 305.909 367.311,306.740 366.727,307.400 366.400 C 308.060 366.073,308.891 365.489,309.247 365.103 C 309.603 364.716,310.112 364.400,310.378 364.400 C 310.645 364.400,311.554 363.680,312.400 362.800 C 313.246 361.920,314.182 361.200,314.480 361.200 C 314.779 361.200,315.283 360.840,315.600 360.400 C 315.917 359.960,316.415 359.600,316.706 359.600 C 316.998 359.600,317.686 359.150,318.236 358.600 C 318.786 358.050,319.453 357.598,319.718 357.595 C 319.983 357.593,321.088 356.693,322.174 355.595 C 323.260 354.498,324.302 353.600,324.491 353.600 C 324.680 353.600,326.259 352.160,328.000 350.400 C 329.741 348.640,331.358 347.200,331.593 347.200 C 332.168 347.200,344.800 334.575,344.800 334.001 C 344.800 333.752,345.700 332.671,346.800 331.600 C 347.900 330.529,348.800 329.450,348.800 329.204 C 348.800 328.957,349.880 327.696,351.200 326.400 C 352.520 325.104,353.600 323.936,353.600 323.805 C 353.600 323.673,354.008 323.125,354.506 322.588 C 355.005 322.050,355.770 320.933,356.206 320.105 C 357.150 318.315,357.403 317.973,359.100 316.192 C 359.815 315.441,360.400 314.551,360.400 314.213 C 360.400 313.876,360.580 313.600,360.800 313.600 C 361.020 313.600,361.200 313.280,361.200 312.888 C 361.200 312.497,361.560 311.917,362.000 311.600 C 362.440 311.283,362.800 310.703,362.800 310.312 C 362.800 309.920,362.980 309.600,363.200 309.600 C 363.420 309.600,363.600 309.332,363.600 309.003 C 363.600 308.675,364.140 307.891,364.800 307.260 C 365.460 306.629,366.000 305.948,366.000 305.745 C 366.000 305.542,366.360 305.117,366.800 304.800 C 367.240 304.483,367.600 303.903,367.600 303.512 C 367.600 303.120,367.780 302.800,368.000 302.800 C 368.220 302.800,368.400 302.566,368.400 302.280 C 368.400 301.544,369.341 299.607,369.700 299.603 C 369.865 299.601,370.000 299.240,370.000 298.800 C 370.000 298.360,370.180 298.000,370.400 298.000 C 370.620 298.000,370.800 297.640,370.800 297.200 C 370.800 296.760,370.980 296.400,371.200 296.400 C 371.420 296.400,371.600 296.080,371.600 295.688 C 371.600 295.297,371.960 294.717,372.400 294.400 C 372.840 294.083,373.200 293.503,373.200 293.112 C 373.200 292.720,373.380 292.400,373.600 292.400 C 373.820 292.400,374.000 292.074,374.000 291.676 C 374.000 291.279,374.264 290.604,374.587 290.176 C 374.910 289.749,375.180 289.085,375.187 288.700 C 375.194 288.315,375.380 288.000,375.600 288.000 C 375.820 288.000,376.000 287.640,376.000 287.200 C 376.000 286.760,376.180 286.400,376.400 286.400 C 376.620 286.400,376.800 286.040,376.800 285.600 C 376.800 285.160,376.980 284.800,377.200 284.800 C 377.420 284.800,377.600 284.260,377.600 283.600 C 377.600 282.940,377.780 282.400,378.000 282.400 C 378.220 282.400,378.400 282.040,378.400 281.600 C 378.400 281.160,378.580 280.800,378.800 280.800 C 379.020 280.800,379.200 280.440,379.200 280.000 C 379.200 279.560,379.380 279.200,379.600 279.200 C 379.820 279.200,380.000 278.840,380.000 278.400 C 380.000 277.960,380.180 277.600,380.400 277.600 C 380.620 277.600,380.800 277.240,380.800 276.800 C 380.800 276.360,380.980 276.000,381.200 276.000 C 381.420 276.000,381.600 275.561,381.600 275.024 C 381.600 274.487,381.780 273.936,382.000 273.800 C 382.220 273.664,382.400 273.113,382.400 272.576 C 382.400 272.039,382.580 271.600,382.800 271.600 C 383.020 271.600,383.200 271.060,383.200 270.400 C 383.200 269.740,383.380 269.200,383.600 269.200 C 383.820 269.200,384.000 268.660,384.000 268.000 C 384.000 267.340,384.180 266.800,384.400 266.800 C 384.620 266.800,384.800 266.260,384.800 265.600 C 384.800 264.940,384.980 264.400,385.200 264.400 C 385.420 264.400,385.600 263.860,385.600 263.200 C 385.600 262.540,385.780 262.000,386.000 262.000 C 386.220 262.000,386.400 261.640,386.400 261.200 C 386.400 260.760,386.580 260.400,386.800 260.400 C 387.020 260.400,387.200 259.860,387.200 259.200 C 387.200 258.540,387.380 258.000,387.600 258.000 C 387.820 258.000,388.000 257.460,388.000 256.800 C 388.000 256.140,388.161 255.600,388.358 255.600 C 388.555 255.600,388.818 254.925,388.943 254.100 C 389.473 250.591,389.708 249.580,390.044 249.373 C 390.240 249.252,390.400 248.364,390.400 247.400 C 390.400 246.436,390.569 245.543,390.775 245.416 C 390.981 245.288,391.140 244.873,391.130 244.492 C 391.080 242.708,391.752 238.000,392.057 238.000 C 392.246 238.000,392.400 236.740,392.400 235.200 C 392.400 233.600,392.571 232.400,392.800 232.400 C 393.020 232.400,393.200 231.500,393.200 230.400 C 393.200 229.300,393.380 228.400,393.600 228.400 C 393.820 228.400,394.000 227.500,394.000 226.400 C 394.000 225.300,394.180 224.400,394.400 224.400 C 394.662 224.400,394.800 216.000,394.800 200.000 C 394.800 184.000,394.662 175.600,394.400 175.600 C 394.180 175.600,394.000 174.700,394.000 173.600 C 394.000 172.500,393.820 171.600,393.600 171.600 C 393.380 171.600,393.200 170.700,393.200 169.600 C 393.200 168.500,393.020 167.600,392.800 167.600 C 392.571 167.600,392.400 166.400,392.400 164.800 C 392.400 163.260,392.246 162.000,392.057 162.000 C 391.869 162.000,391.583 160.695,391.422 159.100 C 391.053 155.457,391.002 155.135,390.681 154.400 C 390.537 154.070,390.349 153.170,390.263 152.400 C 390.177 151.630,390.007 150.730,389.886 150.400 C 389.577 149.561,389.173 147.670,388.926 145.900 C 388.810 145.075,388.555 144.400,388.358 144.400 C 388.161 144.400,388.000 143.860,388.000 143.200 C 388.000 142.540,387.820 142.000,387.600 142.000 C 387.380 142.000,387.200 141.460,387.200 140.800 C 387.200 140.140,387.020 139.600,386.800 139.600 C 386.580 139.600,386.400 139.240,386.400 138.800 C 386.400 138.360,386.220 138.000,386.000 138.000 C 385.780 138.000,385.600 137.460,385.600 136.800 C 385.600 136.140,385.420 135.600,385.200 135.600 C 384.980 135.600,384.800 135.060,384.800 134.400 C 384.800 133.740,384.620 133.200,384.400 133.200 C 384.180 133.200,384.000 132.660,384.000 132.000 C 384.000 131.340,383.820 130.800,383.600 130.800 C 383.380 130.800,383.200 130.260,383.200 129.600 C 383.200 128.940,383.020 128.400,382.800 128.400 C 382.580 128.400,382.400 127.961,382.400 127.424 C 382.400 126.887,382.220 126.336,382.000 126.200 C 381.780 126.064,381.600 125.513,381.600 124.976 C 381.600 124.439,381.420 124.000,381.200 124.000 C 380.980 124.000,380.800 123.640,380.800 123.200 C 380.800 122.760,380.620 122.400,380.400 122.400 C 380.180 122.400,380.000 122.040,380.000 121.600 C 380.000 121.160,379.820 120.800,379.600 120.800 C 379.380 120.800,379.200 120.440,379.200 120.000 C 379.200 119.560,379.020 119.200,378.800 119.200 C 378.580 119.200,378.400 118.840,378.400 118.400 C 378.400 117.960,378.220 117.600,378.000 117.600 C 377.780 117.600,377.600 117.060,377.600 116.400 C 377.600 115.740,377.420 115.200,377.200 115.200 C 376.980 115.200,376.800 114.840,376.800 114.400 C 376.800 113.960,376.620 113.600,376.400 113.600 C 376.180 113.600,376.000 113.240,376.000 112.800 C 376.000 112.360,375.820 112.000,375.600 112.000 C 375.380 112.000,375.194 111.685,375.187 111.300 C 375.180 110.915,374.910 110.251,374.587 109.824 C 374.264 109.396,374.000 108.721,374.000 108.324 C 374.000 107.926,373.820 107.600,373.600 107.600 C 373.380 107.600,373.200 107.280,373.200 106.888 C 373.200 106.497,372.840 105.917,372.400 105.600 C 371.960 105.283,371.600 104.703,371.600 104.312 C 371.600 103.920,371.420 103.600,371.200 103.600 C 370.980 103.600,370.800 103.255,370.800 102.833 C 370.800 102.412,370.665 102.007,370.500 101.933 C 370.100 101.755,368.400 98.451,368.400 97.851 C 368.400 97.590,368.040 97.117,367.600 96.800 C 367.160 96.483,366.800 95.903,366.800 95.512 C 366.800 95.120,366.620 94.800,366.400 94.800 C 366.180 94.800,366.000 94.594,366.000 94.343 C 366.000 94.092,365.460 93.371,364.800 92.740 C 364.140 92.109,363.600 91.325,363.600 90.997 C 363.600 90.668,363.420 90.400,363.200 90.400 C 362.980 90.400,362.800 90.080,362.800 89.688 C 362.800 89.297,362.440 88.717,362.000 88.400 C 361.560 88.083,361.200 87.503,361.200 87.112 C 361.200 86.720,361.020 86.400,360.800 86.400 C 360.580 86.400,360.400 86.124,360.400 85.787 C 360.400 85.449,359.815 84.559,359.100 83.808 C 357.457 82.084,357.132 81.656,356.432 80.300 C 356.120 79.695,355.715 79.200,355.532 79.200 C 355.350 79.200,355.200 78.964,355.200 78.675 C 355.200 78.387,354.840 77.764,354.400 77.292 C 353.960 76.820,353.600 76.326,353.600 76.195 C 353.600 76.063,352.520 74.896,351.200 73.600 C 349.880 72.304,348.800 71.044,348.800 70.800 C 348.800 70.556,347.720 69.296,346.400 68.000 C 345.080 66.704,344.000 65.364,344.000 65.022 C 344.000 64.667,343.657 64.400,343.200 64.400 C 342.729 64.400,342.400 64.133,342.400 63.752 C 342.400 63.055,332.269 52.800,331.580 52.800 C 331.352 52.800,329.741 51.360,328.000 49.600 C 326.259 47.840,324.670 46.400,324.468 46.400 C 324.267 46.400,323.224 45.505,322.151 44.410 C 321.078 43.316,319.983 42.416,319.718 42.410 C 319.453 42.405,318.786 41.950,318.236 41.400 C 317.686 40.850,316.998 40.400,316.706 40.400 C 316.415 40.400,315.917 40.040,315.600 39.600 C 315.283 39.160,314.779 38.800,314.480 38.800 C 314.182 38.800,313.246 38.080,312.400 37.200 C 311.554 36.320,310.645 35.600,310.378 35.600 C 310.112 35.600,309.603 35.284,309.247 34.897 C 308.891 34.511,308.060 33.927,307.400 33.600 C 306.740 33.273,305.909 32.689,305.553 32.303 C 305.197 31.916,304.612 31.600,304.253 31.600 C 303.894 31.600,303.600 31.420,303.600 31.200 C 303.600 30.980,303.312 30.800,302.960 30.800 C 302.609 30.800,301.817 30.260,301.200 29.600 C 300.583 28.940,299.791 28.400,299.440 28.400 C 299.088 28.400,298.800 28.220,298.800 28.000 C 298.800 27.780,298.440 27.600,298.000 27.600 C 297.560 27.600,297.200 27.420,297.200 27.200 C 297.200 26.980,296.840 26.800,296.400 26.800 C 295.960 26.800,295.600 26.620,295.600 26.400 C 295.600 26.180,295.251 26.000,294.824 26.000 C 294.397 26.000,293.934 25.817,293.796 25.593 C 293.658 25.370,293.390 25.283,293.200 25.400 C 293.010 25.517,292.742 25.430,292.604 25.207 C 292.466 24.983,291.993 24.800,291.553 24.800 C 291.113 24.800,290.864 24.620,291.000 24.400 C 291.136 24.180,290.959 24.000,290.607 24.000 C 290.255 24.000,289.580 23.640,289.108 23.200 C 288.636 22.760,288.013 22.400,287.725 22.400 C 287.436 22.400,287.200 22.220,287.200 22.000 C 287.200 21.780,286.840 21.600,286.400 21.600 C 285.960 21.600,285.600 21.420,285.600 21.200 C 285.600 20.980,285.240 20.800,284.800 20.800 C 284.360 20.800,284.000 20.620,284.000 20.400 C 284.000 20.180,283.640 20.000,283.200 20.000 C 282.760 20.000,282.400 19.820,282.400 19.600 C 282.400 19.380,282.040 19.200,281.600 19.200 C 281.160 19.200,280.800 19.020,280.800 18.800 C 280.800 18.580,280.260 18.400,279.600 18.400 C 278.940 18.400,278.400 18.220,278.400 18.000 C 278.400 17.780,278.040 17.600,277.600 17.600 C 277.160 17.600,276.800 17.420,276.800 17.200 C 276.800 16.980,276.260 16.800,275.600 16.800 C 274.940 16.800,274.400 16.620,274.400 16.400 C 274.400 16.180,274.040 16.000,273.600 16.000 C 273.160 16.000,272.800 15.820,272.800 15.600 C 272.800 15.380,272.530 15.200,272.200 15.200 C 271.870 15.200,271.600 15.020,271.600 14.800 C 271.600 14.580,271.240 14.400,270.800 14.400 C 270.360 14.400,270.000 14.220,270.000 14.000 C 270.000 13.780,269.460 13.600,268.800 13.600 C 268.140 13.600,267.600 13.420,267.600 13.200 C 267.600 12.980,267.060 12.800,266.400 12.800 C 265.740 12.800,265.200 12.620,265.200 12.400 C 265.200 12.180,264.660 12.000,264.000 12.000 C 263.340 12.000,262.800 11.820,262.800 11.600 C 262.800 11.380,262.260 11.200,261.600 11.200 C 260.940 11.200,260.400 11.020,260.400 10.800 C 260.400 10.580,259.680 10.400,258.800 10.400 C 257.920 10.400,257.200 10.240,257.200 10.045 C 257.200 9.850,256.705 9.585,256.100 9.455 C 255.495 9.326,253.965 8.997,252.700 8.724 C 251.435 8.451,250.400 8.087,250.400 7.914 C 250.400 7.741,249.860 7.600,249.200 7.600 C 248.540 7.600,248.000 7.420,248.000 7.200 C 248.000 6.980,247.100 6.800,246.000 6.800 C 244.900 6.800,244.000 6.620,244.000 6.400 C 244.000 6.180,243.089 6.000,241.976 6.000 C 240.729 6.000,240.048 5.847,240.200 5.600 C 240.352 5.353,239.671 5.200,238.424 5.200 C 237.311 5.200,236.400 5.020,236.400 4.800 C 236.400 4.578,235.333 4.400,234.000 4.400 C 232.667 4.400,231.600 4.222,231.600 4.000 C 231.600 3.767,230.267 3.600,228.400 3.600 C 226.533 3.600,225.200 3.433,225.200 3.200 C 225.200 2.959,223.533 2.800,221.000 2.800 C 218.467 2.800,216.800 2.641,216.800 2.400 C 216.800 2.140,210.933 2.000,200.000 2.000 C 189.067 2.000,183.200 2.140,183.200 2.400 M216.600 65.941 C 223.234 66.618,234.324 68.700,239.112 70.166 C 240.810 70.687,242.560 71.207,243.000 71.323 C 244.075 71.606,248.787 73.379,250.677 74.211 C 251.515 74.580,252.560 75.019,253.000 75.187 C 256.360 76.471,260.392 78.433,265.400 81.221 C 269.152 83.310,276.356 87.835,276.800 88.381 C 276.910 88.516,278.250 89.510,279.777 90.589 C 284.443 93.885,295.047 103.874,298.047 107.800 C 298.551 108.460,299.760 109.900,300.734 111.000 C 301.708 112.100,303.233 114.080,304.124 115.400 C 305.015 116.720,305.892 117.860,306.072 117.933 C 306.253 118.007,306.400 118.230,306.400 118.430 C 306.400 118.630,307.054 119.650,307.854 120.697 C 308.653 121.743,309.498 123.050,309.731 123.600 C 309.964 124.150,310.369 124.870,310.630 125.200 C 310.892 125.530,311.847 127.195,312.753 128.900 C 313.659 130.605,315.092 133.305,315.938 134.900 C 317.233 137.341,318.255 139.715,320.804 146.200 C 320.977 146.640,321.386 147.630,321.712 148.400 C 322.039 149.170,322.976 151.960,323.794 154.600 C 324.613 157.240,325.430 159.760,325.609 160.200 C 325.789 160.640,326.039 161.630,326.165 162.400 C 326.291 163.170,326.586 164.610,326.822 165.600 C 327.711 169.336,328.137 171.800,329.141 179.000 C 329.355 180.540,329.744 183.150,330.005 184.800 C 330.646 188.858,330.645 211.213,330.003 215.200 C 329.738 216.850,329.370 219.370,329.185 220.800 C 328.348 227.290,327.602 230.371,326.757 230.823 C 326.322 231.056,292.511 231.200,238.450 231.200 C 184.771 231.200,150.758 231.344,150.617 231.573 C 150.490 231.778,151.224 233.623,152.246 235.673 C 153.269 237.723,154.307 239.804,154.553 240.297 C 154.799 240.790,155.135 241.195,155.300 241.197 C 155.465 241.199,155.603 241.425,155.607 241.700 C 155.624 242.848,162.754 250.567,166.417 253.402 C 169.839 256.052,177.138 259.953,181.000 261.196 C 181.880 261.479,182.960 261.847,183.400 262.013 C 188.453 263.918,197.713 265.001,208.800 264.983 C 218.981 264.966,220.564 264.814,227.600 263.171 C 228.590 262.940,229.897 262.651,230.505 262.529 C 231.113 262.407,231.708 262.149,231.829 261.954 C 231.949 261.759,232.476 261.600,233.000 261.600 C 233.524 261.600,234.064 261.420,234.200 261.200 C 234.336 260.980,234.768 260.800,235.159 260.800 C 235.809 260.800,241.305 258.136,244.845 256.104 C 245.640 255.648,246.720 255.033,247.245 254.738 C 248.259 254.167,253.707 249.710,255.921 247.641 C 257.227 246.421,257.259 246.414,258.720 247.024 C 260.640 247.827,264.948 250.220,267.072 251.663 C 267.992 252.288,268.922 252.800,269.139 252.800 C 269.356 252.800,269.593 252.937,269.667 253.103 C 269.740 253.270,270.970 254.020,272.400 254.770 C 273.830 255.520,276.170 256.846,277.600 257.717 C 279.030 258.587,280.796 259.640,281.526 260.057 C 282.255 260.474,283.327 261.127,283.908 261.508 C 284.489 261.888,285.626 262.560,286.433 263.000 C 288.947 264.370,291.733 265.976,293.400 267.017 C 294.280 267.567,295.270 268.130,295.600 268.269 C 295.930 268.408,296.470 268.738,296.800 269.003 C 297.130 269.267,298.390 269.999,299.600 270.629 C 300.810 271.259,302.825 272.456,304.078 273.287 C 305.331 274.119,306.531 274.800,306.745 274.800 C 306.958 274.800,307.193 274.935,307.267 275.100 C 307.340 275.265,308.298 275.850,309.397 276.400 C 318.438 280.929,318.832 281.599,315.097 286.083 C 313.944 287.468,312.134 289.680,311.075 291.000 C 300.466 304.224,281.710 317.944,266.000 323.972 C 264.130 324.689,262.240 325.430,261.800 325.618 C 261.360 325.806,260.190 326.233,259.200 326.567 C 258.210 326.900,256.590 327.468,255.600 327.827 C 250.800 329.570,241.208 331.715,233.400 332.791 C 225.943 333.818,224.270 333.996,217.800 334.447 C 207.974 335.131,190.120 334.238,181.400 332.626 C 170.977 330.698,169.507 330.380,164.000 328.859 C 160.508 327.895,156.913 326.646,156.532 326.265 C 156.386 326.119,155.961 326.000,155.587 326.000 C 155.213 326.000,154.028 325.657,152.953 325.238 C 151.879 324.819,149.920 324.068,148.600 323.570 C 147.280 323.072,143.410 321.286,140.000 319.601 C 123.426 311.411,110.466 301.150,98.568 286.800 C 91.341 278.082,81.578 261.447,79.201 253.800 C 78.927 252.920,78.545 252.029,78.352 251.820 C 78.158 251.611,78.000 251.037,78.000 250.544 C 78.000 250.051,77.820 249.536,77.600 249.400 C 77.380 249.264,77.200 248.724,77.200 248.200 C 77.200 247.676,77.020 247.136,76.800 247.000 C 76.580 246.864,76.400 246.324,76.400 245.800 C 76.400 245.276,76.220 244.736,76.000 244.600 C 75.780 244.464,75.600 243.834,75.600 243.200 C 75.600 242.566,75.441 241.949,75.246 241.829 C 75.051 241.708,74.797 241.113,74.681 240.505 C 74.566 239.897,74.027 237.780,73.484 235.800 C 72.646 232.742,71.716 227.832,70.608 220.600 C 68.491 206.792,68.985 186.878,71.814 172.000 C 72.989 165.820,73.163 165.019,73.811 162.800 C 74.165 161.590,74.547 160.240,74.660 159.800 C 74.774 159.360,75.011 158.640,75.188 158.200 C 75.364 157.760,75.727 156.590,75.993 155.600 C 76.260 154.610,76.640 153.487,76.839 153.105 C 77.038 152.723,77.200 152.059,77.200 151.629 C 77.200 151.199,77.380 150.736,77.600 150.600 C 77.820 150.464,78.000 149.949,78.000 149.456 C 78.000 148.963,78.158 148.389,78.352 148.180 C 78.545 147.971,78.927 147.080,79.200 146.200 C 80.097 143.307,87.069 129.474,89.481 125.800 C 90.781 123.820,91.947 121.929,92.073 121.597 C 92.767 119.760,99.861 111.055,105.762 104.800 C 111.961 98.230,117.557 93.481,125.616 87.951 C 131.491 83.921,143.081 77.623,147.600 76.007 C 148.370 75.732,149.540 75.273,150.200 74.987 C 151.808 74.291,155.868 72.831,157.600 72.325 C 158.370 72.101,159.180 71.780,159.400 71.612 C 159.620 71.444,160.250 71.212,160.800 71.096 C 161.350 70.980,163.690 70.403,166.000 69.813 C 173.556 67.885,181.632 66.520,188.543 66.002 C 191.152 65.807,193.400 65.533,193.540 65.393 C 193.905 65.029,211.842 65.455,216.600 65.941 M192.200 134.648 C 176.964 137.007,167.743 142.014,158.387 153.010 C 155.129 156.839,148.800 169.752,148.800 172.571 C 148.800 172.697,172.560 172.800,201.600 172.800 C 252.248 172.800,254.400 172.771,254.400 172.077 C 254.400 171.147,251.620 164.009,250.034 160.868 C 244.743 150.386,234.059 141.050,223.200 137.419 C 219.659 136.235,219.277 136.143,212.400 134.821 C 207.373 133.854,197.855 133.773,192.200 134.648 " stroke="none" fill="#1c7cbc" fill-rule="evenodd"></path></g></svg>
